<svg xmlns="http://www.w3.org/2000/svg" version="1.1" xmlns:xlink="http://www.w3.org/1999/xlink" width="518" height="518"><svg width="518" height="518" viewBox="0 0 518 518" fill="none" xmlns="http://www.w3.org/2000/svg">
<path d="M488 517.699C501.255 517.699 512.117 506.929 510.876 493.732C505.321 434.63 479.347 379.007 437.019 336.679C389.01 288.67 323.895 261.699 256 261.699C188.105 261.699 122.99 288.67 74.9807 336.679C32.6535 379.007 6.67905 434.63 1.12359 493.732C-0.116861 506.929 10.7452 517.699 24 517.699L256 517.699H488Z" fill="#F97316"></path>
<path d="M368.027 310.384C365.674 316.654 363.518 322.997 361.563 329.403C371.803 321.968 383.973 317.243 398.021 315.493C424.827 312.144 448.645 294.448 460.699 272.208L445.168 256.688L460.24 241.595L470.907 230.907C475.493 226.331 480.667 217.851 486.139 205.659C426.48 214.907 389.957 251.429 368.027 310.384ZM475.333 256.667L486 267.333C475.333 299.333 443.333 331.333 400.667 336.667C372.201 340.222 328.104 383.143 321 418.699C331.667 354.699 358 182 518 182C507.333 213.972 496.677 235.294 486.032 245.968L475.333 256.667Z" fill="black"></path>
</svg><style>@media (prefers-color-scheme: light) { :root { filter: none; } }
@media (prefers-color-scheme: dark) { :root { filter: none; } }
</style></svg>