<svg xmlns="http://www.w3.org/2000/svg" version="1.1" xmlns:xlink="http://www.w3.org/1999/xlink" width="1000" height="1000"><style>
    #light-icon {
      display: inline;
    }
    #dark-icon {
      display: none;
    }

    @media (prefers-color-scheme: dark) {
      #light-icon {
        display: none;
      }
      #dark-icon {
        display: inline;
      }
    }
  </style><g id="light-icon"><svg xmlns="http://www.w3.org/2000/svg" version="1.1" xmlns:xlink="http://www.w3.org/1999/xlink" width="1000" height="1000"><g><g transform="matrix(1.9305019305019304,0,0,1.9305019305019304,0,0)"><svg xmlns="http://www.w3.org/2000/svg" version="1.1" xmlns:xlink="http://www.w3.org/1999/xlink" width="518" height="518"><svg width="518" height="518" viewBox="0 0 518 518" fill="none" xmlns="http://www.w3.org/2000/svg">
<path d="M496 426.699C504.837 426.699 512.052 419.526 511.5 410.707C507.619 348.647 481.246 289.906 437.019 245.679C389.01 197.67 323.895 170.699 256 170.699C188.105 170.699 122.99 197.67 74.9807 245.679C30.7545 289.906 4.38133 348.647 0.49953 410.707C-0.0521147 419.526 7.16344 426.699 16 426.699L256 426.699H496Z" fill="#F97316"></path>
<path d="M368.027 219.384C365.674 225.654 363.518 231.997 361.563 238.403C371.803 230.968 383.973 226.243 398.021 224.493C424.827 221.144 448.645 203.448 460.699 181.208L445.168 165.688L460.24 150.595L470.907 139.907C475.493 135.331 480.667 126.851 486.139 114.659C426.48 123.907 389.957 160.429 368.027 219.384ZM475.333 165.667L486 176.333C475.333 208.333 443.333 240.333 400.667 245.667C372.201 249.222 328.104 292.143 321 327.699C331.667 263.699 358 91 518 91C507.333 122.972 496.677 144.294 486.032 154.968L475.333 165.667Z" fill="black"></path>
</svg></svg></g></g></svg></g><g id="dark-icon"><svg xmlns="http://www.w3.org/2000/svg" version="1.1" xmlns:xlink="http://www.w3.org/1999/xlink" width="1000" height="1000"><g><g transform="matrix(1.9305019305019304,0,0,1.9305019305019304,0,0)"><svg xmlns="http://www.w3.org/2000/svg" version="1.1" xmlns:xlink="http://www.w3.org/1999/xlink" width="518" height="518"><svg width="518" height="518" viewBox="0 0 518 518" fill="none" xmlns="http://www.w3.org/2000/svg">
<path d="M496 426.699C504.837 426.699 512.052 419.526 511.5 410.707C507.619 348.647 481.246 289.906 437.019 245.679C389.01 197.67 323.895 170.699 256 170.699C188.105 170.699 122.99 197.67 74.9807 245.679C30.7545 289.906 4.38133 348.647 0.49953 410.707C-0.0521147 419.526 7.16344 426.699 16 426.699L256 426.699H496Z" fill="#F97316"></path>
<path d="M368.027 219.384C365.674 225.654 363.518 231.997 361.563 238.403C371.803 230.968 383.973 226.243 398.021 224.493C424.827 221.144 448.645 203.448 460.699 181.208L445.168 165.688L460.24 150.595L470.907 139.907C475.493 135.331 480.667 126.851 486.139 114.659C426.48 123.907 389.957 160.429 368.027 219.384ZM475.333 165.667L486 176.333C475.333 208.333 443.333 240.333 400.667 245.667C372.201 249.222 328.104 292.143 321 327.699C331.667 263.699 358 91 518 91C507.333 122.972 496.677 144.294 486.032 154.968L475.333 165.667Z" fill="#FEF8DD"></path>
</svg></svg></g></g></svg></g></svg>